<?xml version="1.0" standalone="no"?>
<!DOCTYPE svg PUBLIC "-//W3C//DTD SVG 20010904//EN"
 "http://www.w3.org/TR/2001/REC-SVG-20010904/DTD/svg10.dtd">
<svg version="1.0" xmlns="http://www.w3.org/2000/svg"
 width="200.000000pt" height="200.000000pt" viewBox="0 0 200.000000 200.000000"
 preserveAspectRatio="xMidYMid meet">
<metadata>
Created by potrace 1.11, written by Peter Selinger 2001-2013
</metadata>
<g transform="translate(0.000000,200.000000) scale(0.100000,-0.100000)"
fill="#000000" stroke="none">
<path d="M0 990 l0 -540 690 0 690 0 0 204 0 204 158 4 c146 3 161 5 215 30
76 36 103 58 140 115 47 75 60 125 55 207 -10 154 -102 259 -265 301 -44 12
-122 15 -345 15 l-288 0 0 -140 0 -140 239 0 c133 0 251 -4 266 -10 46 -17 53
-85 11 -112 -6 -4 -125 -8 -263 -8 l-253 0 0 -195 0 -195 -370 0 -370 0 0 60
0 60 285 0 285 0 0 135 0 135 -285 0 -285 0 0 65 0 65 290 0 290 0 0 140 0
140 -445 0 -445 0 0 -540z"/>
</g>
</svg>
